<svg xmlns="http://www.w3.org/2000/svg" xmlns:xlink="http://www.w3.org/1999/xlink" width="500" zoomAndPan="magnify" viewBox="0 0 375 374.999991" height="500" preserveAspectRatio="xMidYMid meet" version="1.2"><defs><clipPath id="1067c0f6bb"><rect x="0" width="369" y="0" height="207"/></clipPath></defs><g id="c83d418ba4"><g transform="matrix(1,0,0,1,0,78)"><g clip-path="url(#1067c0f6bb)"><g style="fill:#ffde59;fill-opacity:1;"><g transform="translate(0.0000045, 145.129331)"><path style="stroke:none" d="M 42.453125 -78.484375 C 43.160156 -79.910156 44.125 -80.546875 45.34375 -80.390625 C 46.570312 -80.242188 47.59375 -79.660156 48.40625 -78.640625 C 49.21875 -77.617188 49.269531 -76.398438 48.5625 -74.984375 C 47.539062 -72.835938 47.3125 -70.441406 47.875 -67.796875 C 48.4375 -65.148438 49.628906 -63.113281 51.453125 -61.6875 C 53.796875 -59.851562 56.546875 -59.113281 59.703125 -59.46875 C 62.859375 -59.832031 65.554688 -60.773438 67.796875 -62.296875 C 70.242188 -63.929688 72.28125 -66.019531 73.90625 -68.5625 C 75.53125 -71.101562 76.800781 -73.695312 77.71875 -76.34375 C 78.84375 -79.601562 79.328125 -82.960938 79.171875 -86.421875 C 79.023438 -89.890625 78.035156 -93.097656 76.203125 -96.046875 C 74.472656 -98.898438 72.179688 -100.9375 69.328125 -102.15625 C 66.472656 -103.375 63.441406 -103.984375 60.234375 -103.984375 C 57.035156 -103.984375 53.957031 -103.523438 51 -102.609375 C 46.820312 -101.390625 42.875 -99.554688 39.15625 -97.109375 C 35.445312 -94.671875 32.066406 -91.875 29.015625 -88.71875 C 25.242188 -84.851562 21.957031 -80.601562 19.15625 -75.96875 C 16.363281 -71.332031 14.050781 -66.472656 12.21875 -61.390625 C 10.488281 -56.398438 9.113281 -51.28125 8.09375 -46.03125 C 7.070312 -40.789062 6.816406 -35.523438 7.328125 -30.234375 C 7.628906 -26.671875 8.492188 -23.207031 9.921875 -19.84375 C 11.347656 -16.488281 13.488281 -13.640625 16.34375 -11.296875 C 19.09375 -9.054688 22.296875 -7.578125 25.953125 -6.859375 C 29.617188 -6.148438 33.1875 -6.050781 36.65625 -6.5625 C 41.132812 -7.375 45 -9.101562 48.25 -11.75 C 51.507812 -14.40625 54.410156 -17.585938 56.953125 -21.296875 C 59.503906 -25.015625 61.796875 -28.882812 63.828125 -32.90625 C 65.867188 -36.925781 67.90625 -40.664062 69.9375 -44.125 C 70.75 -45.445312 71.765625 -46.054688 72.984375 -45.953125 C 74.210938 -45.859375 75.207031 -45.300781 75.96875 -44.28125 C 76.726562 -43.257812 76.753906 -42.039062 76.046875 -40.625 C 76.046875 -40.625 76.046875 -40.570312 76.046875 -40.46875 C 76.046875 -40.363281 75.992188 -40.3125 75.890625 -40.3125 C 72.429688 -32.78125 68.96875 -25.242188 65.5 -17.703125 C 62.039062 -10.171875 58.484375 -2.691406 54.828125 4.734375 C 53.492188 7.585938 52.0625 10.460938 50.53125 13.359375 C 49.007812 16.265625 47.332031 19.039062 45.5 21.6875 C 42.039062 26.675781 37.867188 30.796875 32.984375 34.046875 C 28.097656 37.304688 22.5 38.425781 16.1875 37.40625 C 12.007812 36.695312 8.695312 34.890625 6.25 31.984375 C 3.8125 29.085938 2.3125 25.675781 1.75 21.75 C 1.195312 17.832031 1.628906 14.046875 3.046875 10.390625 C 3.460938 9.472656 4.050781 8.757812 4.8125 8.25 C 5.570312 7.738281 6.460938 7.632812 7.484375 7.9375 C 8.296875 8.144531 9.003906 8.707031 9.609375 9.625 C 10.222656 10.539062 10.328125 11.40625 9.921875 12.21875 C 8.910156 14.65625 8.425781 17.25 8.46875 20 C 8.519531 22.75 9.460938 25.144531 11.296875 27.1875 C 13.234375 29.21875 15.675781 30.359375 18.625 30.609375 C 21.582031 30.867188 24.28125 30.488281 26.71875 29.46875 C 29.46875 28.351562 31.910156 26.695312 34.046875 24.5 C 36.191406 22.3125 38.078125 20 39.703125 17.5625 C 41.429688 14.914062 43.035156 12.242188 44.515625 9.546875 C 45.992188 6.847656 47.394531 4.070312 48.71875 1.21875 C 49.320312 0 49.925781 -1.21875 50.53125 -2.4375 C 51.144531 -3.664062 51.757812 -4.890625 52.375 -6.109375 C 48.613281 -3.253906 44.46875 -1.289062 39.9375 -0.21875 C 35.40625 0.84375 30.742188 1.019531 25.953125 0.3125 C 21.578125 -0.40625 17.582031 -1.957031 13.96875 -4.34375 C 10.351562 -6.738281 7.425781 -9.820312 5.1875 -13.59375 C 2.644531 -18.070312 1.066406 -22.929688 0.453125 -28.171875 C -0.148438 -33.410156 -0.0976562 -38.523438 0.609375 -43.515625 C 1.628906 -51.554688 3.71875 -59.492188 6.875 -67.328125 C 10.03125 -75.171875 14.226562 -82.347656 19.46875 -88.859375 C 24.707031 -95.378906 30.941406 -100.675781 38.171875 -104.75 C 43.160156 -107.601562 48.609375 -109.5625 54.515625 -110.625 C 60.421875 -111.695312 66.070312 -111.0625 71.46875 -108.71875 C 75.632812 -106.988281 78.914062 -104.367188 81.3125 -100.859375 C 83.707031 -97.347656 85.234375 -93.425781 85.890625 -89.09375 C 86.554688 -84.769531 86.28125 -80.519531 85.0625 -76.34375 C 83.9375 -72.28125 82.125 -68.335938 79.625 -64.515625 C 77.132812 -60.703125 74.03125 -57.675781 70.3125 -55.4375 C 66.601562 -53.195312 62.351562 -52.226562 57.5625 -52.53125 C 54.507812 -52.726562 51.660156 -53.566406 49.015625 -55.046875 C 46.367188 -56.523438 44.332031 -58.585938 42.90625 -61.234375 C 41.476562 -63.878906 40.710938 -66.726562 40.609375 -69.78125 C 40.515625 -72.832031 41.128906 -75.734375 42.453125 -78.484375 Z M 42.453125 -78.484375 "/></g></g><g style="fill:#ffde59;fill-opacity:1;"><g transform="translate(81.684879, 145.129331)"><path style="stroke:none" d="M 63.828125 -29.3125 C 64.640625 -30.632812 65.679688 -31.21875 66.953125 -31.0625 C 68.234375 -30.914062 69.253906 -30.304688 70.015625 -29.234375 C 70.773438 -28.171875 70.75 -26.976562 69.9375 -25.65625 C 68.71875 -23.519531 67.191406 -21 65.359375 -18.09375 C 63.523438 -15.195312 61.460938 -12.375 59.171875 -9.625 C 56.878906 -6.875 54.410156 -4.554688 51.765625 -2.671875 C 49.117188 -0.785156 46.34375 0.253906 43.4375 0.453125 C 40.539062 0.660156 37.613281 -0.40625 34.65625 -2.75 C 33.945312 -3.257812 33.617188 -4.070312 33.671875 -5.1875 C 33.722656 -6.3125 34.050781 -7.128906 34.65625 -7.640625 C 35.476562 -8.453125 36.347656 -8.804688 37.265625 -8.703125 C 38.179688 -8.597656 38.992188 -8.242188 39.703125 -7.640625 C 41.128906 -6.617188 42.578125 -6.3125 44.046875 -6.71875 C 45.523438 -7.125 46.953125 -7.882812 48.328125 -9 C 49.703125 -10.125 50.847656 -11.195312 51.765625 -12.21875 C 54.210938 -14.65625 56.425781 -17.347656 58.40625 -20.296875 C 60.394531 -23.253906 62.203125 -26.257812 63.828125 -29.3125 Z M 47.796875 -44.59375 C 47.085938 -40.519531 45.992188 -36.519531 44.515625 -32.59375 C 43.035156 -28.675781 41.378906 -24.882812 39.546875 -21.21875 C 38.222656 -18.476562 36.566406 -15.601562 34.578125 -12.59375 C 32.597656 -9.59375 30.332031 -6.84375 27.78125 -4.34375 C 25.238281 -1.851562 22.441406 0.0234375 19.390625 1.296875 C 16.335938 2.566406 13.03125 2.847656 9.46875 2.140625 C 9.363281 2.140625 9.179688 2.113281 8.921875 2.0625 C 8.671875 2.007812 8.5 1.984375 8.40625 1.984375 C 4.738281 0.867188 2.035156 -0.984375 0.296875 -3.578125 C -1.429688 -6.179688 -2.445312 -9.132812 -2.75 -12.4375 C -3.050781 -15.75 -2.894531 -19.160156 -2.28125 -22.671875 C -1.675781 -26.179688 -0.863281 -29.363281 0.15625 -32.21875 C 1.582031 -36.394531 3.3125 -40.644531 5.34375 -44.96875 C 7.382812 -49.289062 9.800781 -53.382812 12.59375 -57.25 C 15.394531 -61.125 18.679688 -64.335938 22.453125 -66.890625 C 25.097656 -68.710938 28.019531 -69.800781 31.21875 -70.15625 C 34.425781 -70.519531 37.457031 -70.085938 40.3125 -68.859375 C 43.164062 -67.640625 45.304688 -65.40625 46.734375 -62.15625 C 48.054688 -59.40625 48.691406 -56.523438 48.640625 -53.515625 C 48.585938 -50.515625 48.304688 -47.539062 47.796875 -44.59375 Z M 24.28125 -11 C 26.820312 -13.75 29.035156 -16.773438 30.921875 -20.078125 C 32.804688 -23.390625 34.460938 -26.722656 35.890625 -30.078125 C 37.109375 -33.128906 38.25 -36.257812 39.3125 -39.46875 C 40.382812 -42.675781 41.070312 -45.859375 41.375 -49.015625 C 41.988281 -56.242188 40.3125 -60.875 36.34375 -62.90625 C 34.613281 -63.726562 32.472656 -63.628906 29.921875 -62.609375 C 27.378906 -61.585938 25.09375 -60.160156 23.0625 -58.328125 C 21.019531 -56.398438 19.207031 -54.265625 17.625 -51.921875 C 16.050781 -49.578125 14.601562 -47.132812 13.28125 -44.59375 C 11.851562 -41.84375 10.503906 -39.015625 9.234375 -36.109375 C 7.960938 -33.210938 6.867188 -30.238281 5.953125 -27.1875 C 5.441406 -25.351562 4.957031 -23.289062 4.5 -21 C 4.039062 -18.707031 3.863281 -16.441406 3.96875 -14.203125 C 4.070312 -11.960938 4.628906 -9.976562 5.640625 -8.25 C 6.660156 -6.519531 8.394531 -5.347656 10.84375 -4.734375 C 13.488281 -4.117188 15.984375 -4.578125 18.328125 -6.109375 C 20.671875 -7.640625 22.65625 -9.269531 24.28125 -11 Z M 24.28125 -11 "/></g></g><g style="fill:#ffde59;fill-opacity:1;"><g transform="translate(147.643557, 145.129331)"><path style="stroke:none" d="M 30.546875 -102 C 31.253906 -103.425781 32.21875 -104.0625 33.4375 -103.90625 C 34.664062 -103.757812 35.6875 -103.175781 36.5 -102.15625 C 37.3125 -101.132812 37.363281 -99.914062 36.65625 -98.5 C 35.738281 -96.5625 34.410156 -93.628906 32.671875 -89.703125 C 30.941406 -85.785156 29.007812 -81.457031 26.875 -76.71875 C 24.738281 -71.988281 22.625 -67.257812 20.53125 -62.53125 C 18.445312 -57.800781 16.585938 -53.550781 14.953125 -49.78125 C 13.328125 -46.007812 12.109375 -43.207031 11.296875 -41.375 C 9.566406 -37.207031 7.757812 -32.832031 5.875 -28.25 C 3.988281 -23.664062 2.945312 -19.035156 2.75 -14.359375 C 2.644531 -13.035156 2.742188 -11.632812 3.046875 -10.15625 C 3.359375 -8.675781 4.175781 -7.476562 5.5 -6.5625 C 6.925781 -5.550781 8.347656 -5.195312 9.765625 -5.5 C 11.191406 -5.800781 12.566406 -6.359375 13.890625 -7.171875 C 17.765625 -9.722656 21.050781 -13.082031 23.75 -17.25 C 26.445312 -21.425781 28.914062 -25.445312 31.15625 -29.3125 C 31.96875 -30.632812 32.984375 -31.21875 34.203125 -31.0625 C 35.421875 -30.914062 36.4375 -30.332031 37.25 -29.3125 C 38.070312 -28.300781 38.078125 -27.132812 37.265625 -25.8125 C 35.628906 -22.957031 33.921875 -20.15625 32.140625 -17.40625 C 30.359375 -14.65625 28.453125 -12.007812 26.421875 -9.46875 C 24.785156 -7.425781 22.925781 -5.460938 20.84375 -3.578125 C 18.757812 -1.703125 16.441406 -0.253906 13.890625 0.765625 C 10.941406 1.878906 8.144531 2.003906 5.5 1.140625 C 2.851562 0.273438 0.664062 -1.273438 -1.0625 -3.515625 C -2.800781 -5.753906 -3.875 -8.347656 -4.28125 -11.296875 C -4.582031 -13.742188 -4.476562 -16.210938 -3.96875 -18.703125 C -3.457031 -21.203125 -2.847656 -23.617188 -2.140625 -25.953125 C -1.328125 -28.703125 -0.363281 -31.425781 0.75 -34.125 C 1.875 -36.820312 3 -39.492188 4.125 -42.140625 C 8.300781 -52.222656 12.601562 -62.25 17.03125 -72.21875 C 21.457031 -82.195312 25.960938 -92.125 30.546875 -102 Z M 30.546875 -102 "/></g></g><g style="fill:#ffde59;fill-opacity:1;"><g transform="translate(179.401315, 145.129331)"><path style="stroke:none" d="M 53.75 -45.96875 C 52.125 -42.5 50.519531 -38.957031 48.9375 -35.34375 C 47.363281 -31.738281 45.863281 -28.101562 44.4375 -24.4375 C 44.132812 -23.414062 43.648438 -21.785156 42.984375 -19.546875 C 42.328125 -17.304688 41.84375 -15.039062 41.53125 -12.75 C 41.226562 -10.457031 41.484375 -8.648438 42.296875 -7.328125 C 43.109375 -6.003906 44.789062 -5.75 47.34375 -6.5625 C 49.476562 -7.28125 51.410156 -8.53125 53.140625 -10.3125 C 54.867188 -12.09375 56.394531 -13.796875 57.71875 -15.421875 C 59.445312 -17.554688 61.023438 -19.796875 62.453125 -22.140625 C 63.878906 -24.484375 65.253906 -26.828125 66.578125 -29.171875 C 67.285156 -30.492188 68.273438 -31.078125 69.546875 -30.921875 C 70.828125 -30.765625 71.847656 -30.148438 72.609375 -29.078125 C 73.367188 -28.015625 73.394531 -26.820312 72.6875 -25.5 C 71.0625 -22.550781 69.304688 -19.648438 67.421875 -16.796875 C 65.535156 -13.941406 63.472656 -11.191406 61.234375 -8.546875 C 59.296875 -6.410156 57.078125 -4.375 54.578125 -2.4375 C 52.085938 -0.507812 49.316406 0.554688 46.265625 0.765625 C 43.828125 0.960938 41.535156 0.425781 39.390625 -0.84375 C 37.253906 -2.113281 35.78125 -3.921875 34.96875 -6.265625 C 34.863281 -6.773438 34.757812 -7.234375 34.65625 -7.640625 C 34.5625 -8.046875 34.460938 -8.453125 34.359375 -8.859375 C 32.015625 -6.109375 29.316406 -3.816406 26.265625 -1.984375 C 23.210938 -0.148438 19.851562 0.816406 16.1875 0.921875 C 13.332031 1.015625 10.632812 0.378906 8.09375 -0.984375 C 5.550781 -2.359375 3.515625 -4.269531 1.984375 -6.71875 C 0.359375 -9.46875 -0.65625 -12.46875 -1.0625 -15.71875 C -1.476562 -18.976562 -1.476562 -22.1875 -1.0625 -25.34375 C -0.457031 -29.726562 0.785156 -34.054688 2.671875 -38.328125 C 4.554688 -42.597656 6.671875 -46.566406 9.015625 -50.234375 C 11.660156 -54.617188 14.96875 -58.664062 18.9375 -62.375 C 22.90625 -66.09375 27.4375 -68.507812 32.53125 -69.625 C 35.175781 -70.238281 37.945312 -70.414062 40.84375 -70.15625 C 43.75 -69.90625 46.320312 -68.914062 48.5625 -67.1875 C 50.59375 -65.5625 52.066406 -63.726562 52.984375 -61.6875 C 56.753906 -69.832031 60.46875 -77.898438 64.125 -85.890625 C 67.789062 -93.878906 71.507812 -101.898438 75.28125 -109.953125 C 75.988281 -111.367188 76.953125 -112 78.171875 -111.84375 C 79.398438 -111.695312 80.421875 -111.113281 81.234375 -110.09375 C 82.046875 -109.082031 82.097656 -107.863281 81.390625 -106.4375 C 78.847656 -101.039062 76.351562 -95.617188 73.90625 -90.171875 C 71.46875 -84.722656 68.972656 -79.300781 66.421875 -73.90625 C 64.285156 -69.226562 62.148438 -64.570312 60.015625 -59.9375 C 57.878906 -55.300781 55.789062 -50.644531 53.75 -45.96875 Z M 18.78125 -6.5625 C 22.039062 -7.476562 24.941406 -9.179688 27.484375 -11.671875 C 30.023438 -14.171875 32.210938 -17.023438 34.046875 -20.234375 C 35.878906 -23.441406 37.410156 -26.46875 38.640625 -29.3125 C 38.835938 -29.726562 38.9375 -29.984375 38.9375 -30.078125 C 40.15625 -33.035156 41.453125 -36.015625 42.828125 -39.015625 C 44.203125 -42.015625 45.550781 -44.992188 46.875 -47.953125 C 46.976562 -48.253906 47.101562 -48.554688 47.25 -48.859375 C 47.40625 -49.171875 47.535156 -49.476562 47.640625 -49.78125 C 47.535156 -50.289062 47.535156 -50.75 47.640625 -51.15625 C 48.148438 -53.601562 47.84375 -56.097656 46.71875 -58.640625 C 45.601562 -61.179688 43.671875 -62.65625 40.921875 -63.0625 C 38.890625 -63.46875 36.773438 -63.414062 34.578125 -62.90625 C 32.390625 -62.40625 30.429688 -61.644531 28.703125 -60.625 C 25.140625 -58.6875 22.0625 -56.085938 19.46875 -52.828125 C 16.875 -49.578125 14.609375 -46.171875 12.671875 -42.609375 C 11.046875 -39.546875 9.546875 -36.3125 8.171875 -32.90625 C 6.796875 -29.5 6.003906 -26.015625 5.796875 -22.453125 C 5.703125 -20.210938 5.804688 -17.921875 6.109375 -15.578125 C 6.410156 -13.234375 7.273438 -11.195312 8.703125 -9.46875 C 9.921875 -7.9375 11.445312 -6.941406 13.28125 -6.484375 C 15.113281 -6.023438 16.945312 -6.050781 18.78125 -6.5625 Z M 18.78125 -6.5625 "/></g></g><g style="fill:#ffde59;fill-opacity:1;"><g transform="translate(245.970484, 145.129331)"><path style="stroke:none" d="M 51 -29.625 C 51.71875 -31.050781 52.710938 -31.6875 53.984375 -31.53125 C 55.253906 -31.375 56.269531 -30.757812 57.03125 -29.6875 C 57.800781 -28.625 57.828125 -27.429688 57.109375 -26.109375 C 55.273438 -22.546875 53.007812 -19.035156 50.3125 -15.578125 C 47.613281 -12.117188 44.554688 -9.039062 41.140625 -6.34375 C 37.734375 -3.644531 34.070312 -1.609375 30.15625 -0.234375 C 26.238281 1.140625 22.039062 1.523438 17.5625 0.921875 C 14.40625 0.410156 11.476562 -0.757812 8.78125 -2.59375 C 6.082031 -4.425781 4.019531 -6.816406 2.59375 -9.765625 C 1.070312 -13.023438 0.257812 -16.4375 0.15625 -20 C 0.0507812 -23.5625 0.304688 -27.078125 0.921875 -30.546875 C 1.628906 -34.109375 2.671875 -37.566406 4.046875 -40.921875 C 5.421875 -44.285156 7.023438 -47.546875 8.859375 -50.703125 C 10.585938 -53.859375 12.597656 -56.859375 14.890625 -59.703125 C 17.179688 -62.554688 19.75 -65 22.59375 -67.03125 C 25.25 -68.863281 28.253906 -70.035156 31.609375 -70.546875 C 34.972656 -71.054688 38.128906 -70.546875 41.078125 -69.015625 C 44.640625 -67.179688 46.675781 -64.40625 47.1875 -60.6875 C 47.695312 -56.976562 47.289062 -53.492188 45.96875 -50.234375 C 44.03125 -45.453125 41.050781 -41.484375 37.03125 -38.328125 C 33.007812 -35.171875 28.503906 -33.082031 23.515625 -32.0625 C 18.523438 -31.050781 13.585938 -31.304688 8.703125 -32.828125 C 7.890625 -29.671875 7.378906 -26.363281 7.171875 -22.90625 C 7.078125 -20.664062 7.304688 -18.320312 7.859375 -15.875 C 8.421875 -13.4375 9.566406 -11.351562 11.296875 -9.625 C 12.929688 -7.988281 14.914062 -6.890625 17.25 -6.328125 C 19.59375 -5.773438 21.882812 -5.648438 24.125 -5.953125 C 28.300781 -6.671875 32.066406 -8.25 35.421875 -10.6875 C 38.785156 -13.132812 41.765625 -16.0625 44.359375 -19.46875 C 46.953125 -22.875 49.164062 -26.257812 51 -29.625 Z M 20 -54.828125 C 18.269531 -52.578125 16.613281 -50.179688 15.03125 -47.640625 C 13.457031 -45.097656 12.113281 -42.398438 11 -39.546875 C 17.8125 -37.515625 24.273438 -38.429688 30.390625 -42.296875 C 32.828125 -43.828125 35.039062 -45.863281 37.03125 -48.40625 C 39.019531 -50.945312 40.164062 -53.75 40.46875 -56.8125 C 40.664062 -59.25 39.953125 -61.078125 38.328125 -62.296875 C 36.703125 -63.523438 34.71875 -63.9375 32.375 -63.53125 C 29.832031 -63.21875 27.539062 -62.171875 25.5 -60.390625 C 23.46875 -58.609375 21.632812 -56.753906 20 -54.828125 Z M 20 -54.828125 "/></g></g><g style="fill:#ffde59;fill-opacity:1;"><g transform="translate(297.42418, 145.129331)"><path style="stroke:none" d="M 62.453125 -29.015625 C 63.171875 -30.335938 64.164062 -30.921875 65.4375 -30.765625 C 66.707031 -30.617188 67.722656 -30.035156 68.484375 -29.015625 C 69.242188 -27.992188 69.269531 -26.820312 68.5625 -25.5 C 66.9375 -22.550781 65.15625 -19.703125 63.21875 -16.953125 C 61.28125 -14.203125 59.191406 -11.554688 56.953125 -9.015625 C 55.023438 -6.972656 52.914062 -5.035156 50.625 -3.203125 C 48.332031 -1.367188 45.8125 0.00390625 43.0625 0.921875 C 40.925781 1.628906 38.710938 1.753906 36.421875 1.296875 C 34.128906 0.835938 32.117188 -0.203125 30.390625 -1.828125 C 28.753906 -3.554688 27.785156 -5.539062 27.484375 -7.78125 C 27.179688 -10.019531 27.234375 -12.257812 27.640625 -14.5 C 28.253906 -17.757812 29.347656 -20.914062 30.921875 -23.96875 C 32.503906 -27.03125 33.957031 -30.035156 35.28125 -32.984375 C 36.394531 -35.628906 37.460938 -38.351562 38.484375 -41.15625 C 39.503906 -43.957031 40.164062 -46.78125 40.46875 -49.625 C 40.664062 -51.457031 40.535156 -53.34375 40.078125 -55.28125 C 39.617188 -57.21875 38.375 -58.390625 36.34375 -58.796875 C 34.613281 -58.992188 32.882812 -58.632812 31.15625 -57.71875 C 29.425781 -56.800781 27.847656 -55.785156 26.421875 -54.671875 C 22.753906 -51.617188 19.492188 -48.03125 16.640625 -43.90625 C 13.796875 -39.78125 11.351562 -35.53125 9.3125 -31.15625 C 7.070312 -26.0625 4.832031 -20.914062 2.59375 -15.71875 C 0.351562 -10.53125 -1.882812 -5.34375 -4.125 -0.15625 C -4.53125 0.65625 -5.238281 1.164062 -6.25 1.375 C -7.269531 1.582031 -8.191406 1.476562 -9.015625 1.0625 C -9.828125 0.5625 -10.332031 -0.144531 -10.53125 -1.0625 C -10.738281 -1.976562 -10.640625 -2.894531 -10.234375 -3.8125 C -9.617188 -5.238281 -9.03125 -6.640625 -8.46875 -8.015625 C -7.914062 -9.390625 -7.332031 -10.738281 -6.71875 -12.0625 C -2.644531 -21.425781 1.425781 -30.789062 5.5 -40.15625 C 9.570312 -49.519531 13.742188 -58.835938 18.015625 -68.109375 C 18.628906 -69.535156 19.546875 -70.171875 20.765625 -70.015625 C 21.984375 -69.859375 23 -69.242188 23.8125 -68.171875 C 24.632812 -67.109375 24.738281 -65.863281 24.125 -64.4375 C 23.820312 -63.726562 23.488281 -63.039062 23.125 -62.375 C 22.769531 -61.71875 22.441406 -60.984375 22.140625 -60.171875 C 22.347656 -60.367188 22.550781 -60.539062 22.75 -60.6875 C 22.957031 -60.84375 23.160156 -60.972656 23.359375 -61.078125 C 25.085938 -62.398438 26.96875 -63.546875 29 -64.515625 C 31.039062 -65.484375 33.179688 -65.914062 35.421875 -65.8125 C 37.660156 -65.8125 39.769531 -65.222656 41.75 -64.046875 C 43.738281 -62.878906 45.191406 -61.28125 46.109375 -59.25 C 47.335938 -56.707031 47.847656 -53.957031 47.640625 -51 C 47.441406 -48.050781 46.984375 -45.253906 46.265625 -42.609375 C 45.453125 -39.453125 44.382812 -36.394531 43.0625 -33.4375 C 41.738281 -30.488281 40.363281 -27.535156 38.9375 -24.578125 C 37.914062 -22.335938 36.796875 -19.867188 35.578125 -17.171875 C 34.359375 -14.472656 33.953125 -11.800781 34.359375 -9.15625 C 34.554688 -7.53125 35.34375 -6.488281 36.71875 -6.03125 C 38.09375 -5.570312 39.492188 -5.546875 40.921875 -5.953125 C 43.265625 -6.566406 45.378906 -7.738281 47.265625 -9.46875 C 49.148438 -11.195312 50.851562 -12.925781 52.375 -14.65625 C 54.414062 -16.789062 56.25 -19.082031 57.875 -21.53125 C 59.5 -23.976562 61.023438 -26.472656 62.453125 -29.015625 Z M 62.453125 -29.015625 "/></g></g></g></g></g></svg>